# xmcd
#
# Track frame offsets:
#	150
#	15188
#	33544
#	51424
#	68196
#	88948
#	107920
#	128621
#	145998
#	161928
#	179773
#
# Disc length: 2680 seconds
# Revision: 1
# Processed by: cddbd v1.5.2PL0 Copyright (c) Steve Scherf et al.
# Submitted via: dBpowerAMP V12.0
#
DISCID=9f0a760b
DTITLE=CandiceRickelleGlover,SaintHelenaIsland,SC - Music Speaks
DYEAR=2014
DGENRE=R&B
TTITLE0=Cried
TTITLE1=Die Without You
TTITLE2=Same Kinda Man
TTITLE3=Damn
TTITLE4=Passenger
TTITLE5=Forever That Man
TTITLE6=Kiss Me
TTITLE7=In The Middle
TTITLE8=Coulda Been Me
TTITLE9=Thank You
TTITLE10=Love Song
EXTD=
EXTT0=
EXTT1=
EXTT2=
EXTT3=
EXTT4=
EXTT5=
EXTT6=
EXTT7=
EXTT8=
EXTT9=
EXTT10=
PLAYORDER=
